# xmcd
#
# Track frame offsets: 
#        180
#        17894
#        34324
#        53926
#        70488
#        86384
#        107547
#        124842
#        140821
#
# Disc length: 2142 seconds
#
# Revision: 0
# Processed by: cddbd v1.5.2PL0 Copyright (c) Steve Scherf et al.
# Submitted via: ExactAudioCopy v0.99pb4
#
DISCID=80085c09
DTITLE=Southside Denny - Rollin' Home
DYEAR=1900
DGENRE=Blues
TTITLE0=Rollin' Home
TTITLE1=No Time
TTITLE2=I Would Do Anything
TTITLE3=How Long is it Gonna Last
TTITLE4=It Breaks My Heart
TTITLE5=Dan Ryan Blues
TTITLE6=Evil Woman
TTITLE7=Every Thing Woman
TTITLE8=Food For Thought
EXTD=
EXTT0=
EXTT1=
EXTT2=
EXTT3=
EXTT4=
EXTT5=
EXTT6=
EXTT7=
EXTT8=
PLAYORDER=
